<?xml version="1.0" encoding="UTF-8" standalone="no"?>
<!-- Created with Inkscape (http://www.inkscape.org/) -->

<svg
   xmlns:dc="http://purl.org/dc/elements/1.1/"
   xmlns:cc="http://creativecommons.org/ns#"
   xmlns:rdf="http://www.w3.org/1999/02/22-rdf-syntax-ns#"
   xmlns:svg="http://www.w3.org/2000/svg"
   xmlns="http://www.w3.org/2000/svg"
   xmlns:sodipodi="http://sodipodi.sourceforge.net/DTD/sodipodi-0.dtd"
   xmlns:inkscape="http://www.inkscape.org/namespaces/inkscape"
   width="136mm"
   height="88mm"
   viewBox="0 0 136 88"
   version="1.1"
   id="svg4491"
   inkscape:version="0.91 r13725"
   sodipodi:docname="ICONbrzmienie.svg">
  <defs
     id="defs4485">
    <inkscape:path-effect
       effect="skeletal"
       id="path-effect5185"
       is_visible="true"
       pattern="m -48.683335,120.09375 c 0,-2.76 2.24,-5 5,-5 2.76,0 5,2.24 5,5 0,2.76 -2.24,5 -5,5 -2.76,0 -5,-2.24 -5,-5 z"
       copytype="single_stretched"
       prop_scale="0.26458333"
       scale_y_rel="false"
       spacing="0"
       normal_offset="0"
       tang_offset="0"
       prop_units="false"
       vertical_pattern="false"
       fuse_tolerance="0" />
    <inkscape:path-effect
       effect="skeletal"
       id="path-effect5181"
       is_visible="true"
       pattern="m -48.683334,118.77083 c 0,-2.76 2.24,-5 5,-5 2.76,0 5,2.24 5,5 0,2.76 -2.24,5 -5,5 -2.76,0 -5,-2.24 -5,-5 z"
       copytype="single_stretched"
       prop_scale="0.26458333"
       scale_y_rel="false"
       spacing="0"
       normal_offset="0"
       tang_offset="0"
       prop_units="false"
       vertical_pattern="false"
       fuse_tolerance="0" />
  </defs>
  <sodipodi:namedview
     id="base"
     pagecolor="#ffffff"
     bordercolor="#666666"
     borderopacity="1.0"
     inkscape:pageopacity="0.0"
     inkscape:pageshadow="2"
     inkscape:zoom="1.577732"
     inkscape:cx="105.48644"
     inkscape:cy="134.88932"
     inkscape:document-units="mm"
     inkscape:current-layer="layer1"
     showgrid="true"
     inkscape:pagecheckerboard="true"
     showguides="false"
     inkscape:window-width="1920"
     inkscape:window-height="1004"
     inkscape:window-x="0"
     inkscape:window-y="24"
     inkscape:window-maximized="1"
     inkscape:measure-start="-70,160"
     inkscape:measure-end="230,0">
    <inkscape:grid
       type="xygrid"
       id="grid5095" />
  </sodipodi:namedview>
  <metadata
     id="metadata4488">
    <rdf:RDF>
      <cc:Work
         rdf:about="">
        <dc:format>image/svg+xml</dc:format>
        <dc:type
           rdf:resource="http://purl.org/dc/dcmitype/StillImage" />
        <dc:title></dc:title>
      </cc:Work>
    </rdf:RDF>
  </metadata>
  <g
     inkscape:label="Layer 1"
     inkscape:groupmode="layer"
     id="layer1"
     transform="translate(0,-209)">
    <path
       style="opacity:1;fill:#800000;fill-opacity:0.92941176;fill-rule:evenodd;stroke:#ffffff;stroke-width:0.20002499;stroke-linecap:butt;stroke-linejoin:miter;stroke-miterlimit:4;stroke-dasharray:0, 2.20027489;stroke-dashoffset:7.55999994;stroke-opacity:1"
       d="m 66.633675,209.50342 c -1.12753,0 -2.035535,1.18004 -2.035535,2.64583 l 0,21.16667 c 0,1.46579 0.908005,2.64583 2.035535,2.64583 1.127533,0 2.035019,-1.18004 2.035019,-2.64583 l 0,-21.16667 c 0,-1.46579 -0.907486,-2.64583 -2.035019,-2.64583 z m 39.000725,9.2692 c -0.75117,0.0396 -1.5737,0.54249 -2.12907,1.38338 l -10.985896,16.63361 c -0.807818,1.2231 -0.735788,2.68435 0.161232,3.2768 0.897017,0.59245 2.269511,0.0847 3.077331,-1.13843 l 10.985893,-16.63361 c 0.80782,-1.22311 0.73579,-2.68435 -0.16123,-3.2768 -0.28032,-0.18515 -0.60682,-0.26294 -0.94826,-0.24495 z m -78.17611,0.003 c -0.341047,-0.0183 -0.667392,0.0591 -0.947229,0.24392 -0.895478,0.59143 -0.965949,2.05214 -0.15813,3.27525 l 10.962122,16.59795 c 0.807818,1.22311 2.17927,1.73142 3.074747,1.13998 0.89548,-0.59143 0.965949,-2.05215 0.158131,-3.27525 l -10.962122,-16.5975 c -0.555376,-0.84088 -1.377216,-1.34425 -2.127519,-1.38441 z m -9.804052,27.85354 c -5.036535,0 -9.0909174,4.72016 -9.0909174,10.58333 l 0,29.10416 c 0,5.86319 4.0543824,10.58333 9.0909174,10.58333 l 100.691522,0 c 5.03654,0 9.09092,-4.72014 9.09092,-10.58333 l 0,-29.10416 c 0,-5.86317 -4.05438,-10.58333 -9.09092,-10.58333 l -100.691522,0 z m 5.103047,5.10253 31.623909,0 0,40.2544 -31.623909,0 c -5.036533,0 -9.091434,-4.72017 -9.091434,-10.58334 l 0,-19.08773 c 0,-5.86317 4.054901,-10.58333 9.091434,-10.58333 z m 35.766808,0 16.971573,0 0,40.2544 -16.971573,0 0,-40.2544 z m 21.113956,0 34.171561,0 c 5.03654,0 9.09143,4.72016 9.09143,10.58333 l 0,19.08773 c 0,5.86317 -4.05489,10.58334 -9.09143,10.58334 l -34.171561,0 0,-40.2544 z m -42.324546,4.0318 c -0.04708,0.006 -0.09043,0.0199 -0.130225,0.0424 -0.01064,0.006 -0.02006,0.0144 -0.02997,0.0217 -0.07627,-0.0136 -0.154326,-0.0217 -0.234612,-0.0217 -0.732895,0 -1.322916,0.59002 -1.322916,1.32292 l 0,17.03979 a 6.9352392,4.6193355 0 0 0 -4.296379,-0.99944 6.9352392,4.6193355 0 0 0 -6.935494,4.61936 6.9352392,4.6193355 0 0 0 6.935494,4.61936 6.9352392,4.6193355 0 0 0 6.630086,-3.26646 c 0.192156,-0.22958 0.312126,-0.52179 0.312126,-0.84596 l 0,-12.43438 c 0.456091,0.45649 1.022668,0.87958 1.712039,1.20769 l 0.0036,0.003 c 1.321345,0.63076 2.662481,0.87878 3.496943,0.95599 0.880469,0.0815 1.512749,0.01 1.666565,-0.31419 0.158803,-0.3342 -0.21317,-0.87387 -1.002522,-1.43505 -0.880203,-0.62577 -1.81733,-1.00581 -3.011705,-1.58957 l -0.0026,-0.003 c -1.065454,-0.5248 -1.809518,-1.04022 -2.482536,-1.54357 -0.133963,-0.10019 -0.258791,-0.19419 -0.379822,-0.28319 l 0,-4.17183 c 0.637333,0.657 1.488104,1.26781 2.534729,1.72754 0.09346,0.041 0.186841,0.0802 0.27957,0.11731 1.396714,0.58861 2.793259,0.82948 3.678327,0.89968 0.931095,0.0738 1.576208,-0.012 1.709457,-0.33434 0.136623,-0.33046 -0.280633,-0.84771 -1.111559,-1.39062 -0.920848,-0.60166 -1.919441,-0.99975 -3.21531,-1.59473 -0.07775,-0.0376 -0.155474,-0.0754 -0.234092,-0.11317 -1.525337,-0.73256 -2.074445,-0.98785 -3.08405,-1.57355 -0.649745,-0.37694 -1.155594,-0.70583 -1.48518,-0.66197 z m 57.539638,2.38176 c -0.186441,0 -0.355071,0.11312 -0.489376,0.29507 -0.181949,0.13431 -0.295071,0.30294 -0.295071,0.48938 l 0,0.1018 c 0,0.0475 0.0082,0.0934 0.0217,0.1385 -0.0131,0.0961 -0.0217,0.19513 -0.0217,0.29817 l 0,4.94905 0,0.10128 0,11.40034 a 5.6513766,3.7613362 0 0 0 -4.037481,-1.13067 5.6513766,3.7613362 0 0 0 -5.651333,3.76153 5.6513766,3.7613362 0 0 0 5.651333,3.761 5.6513766,3.7613362 0 0 0 5.627047,-3.43959 c 0.05013,-0.17454 0.08062,-0.36803 0.08062,-0.57568 l 0,-12.99247 16.93953,0 0,10.77299 a 5.6513766,3.7613362 0 0 0 -4.08916,-1.16737 5.6513766,3.7613362 0 0 0 -5.65133,3.7615 5.6513766,3.7613362 0 0 0 5.65133,3.76103 5.6513766,3.7613362 0 0 0 5.62343,-3.38947 c 0.0859,-0.21222 0.13591,-0.46874 0.13591,-0.74621 l 0,-13.77693 0,-0.10128 0,-4.94905 c 0,-0.10323 -0.008,-0.20238 -0.0212,-0.29869 0.0134,-0.0449 0.0217,-0.0907 0.0217,-0.13798 l 0,-0.1018 c 0,-0.18605 -0.1133,-0.35417 -0.29456,-0.48834 -0.13441,-0.1825 -0.30314,-0.29611 -0.48989,-0.29611 l -0.10181,0 c -0.0473,0 -0.0935,0.008 -0.13849,0.0217 -0.0961,-0.0131 -0.19513,-0.0217 -0.29817,-0.0217 l -17.634579,0 c -0.103039,0 -0.202022,0.009 -0.298172,0.0217 -0.0451,-0.0135 -0.09154,-0.0217 -0.13901,-0.0217 l -0.101287,0 z m 0.885735,1.67018 16.939534,0 0,3.81734 -16.939534,0 0,-3.81734 z"
       id="rect5036"
       inkscape:connector-curvature="0" />
  </g>
</svg>
