<?xml version="1.0" encoding="UTF-8" standalone="no"?>
<!-- Created with Inkscape (http://www.inkscape.org/) -->

<svg
   xmlns:dc="http://purl.org/dc/elements/1.1/"
   xmlns:cc="http://creativecommons.org/ns#"
   xmlns:rdf="http://www.w3.org/1999/02/22-rdf-syntax-ns#"
   xmlns:svg="http://www.w3.org/2000/svg"
   xmlns="http://www.w3.org/2000/svg"
   xmlns:sodipodi="http://sodipodi.sourceforge.net/DTD/sodipodi-0.dtd"
   xmlns:inkscape="http://www.inkscape.org/namespaces/inkscape"
   width="134mm"
   height="88mm"
   viewBox="0 0 134 88"
   version="1.1"
   id="svg4491"
   inkscape:version="0.91 r13725"
   sodipodi:docname="ICONdesign2.svg"
   inkscape:export-filename="C:\Users\Nojmek\Desktop\ICONdesign2.png"
   inkscape:export-xdpi="96"
   inkscape:export-ydpi="96">
  <defs
     id="defs4485" />
  <sodipodi:namedview
     id="base"
     pagecolor="#ffffff"
     bordercolor="#666666"
     borderopacity="1.0"
     inkscape:pageopacity="0.0"
     inkscape:pageshadow="2"
     inkscape:zoom="2.9216378"
     inkscape:cx="201.72051"
     inkscape:cy="183.39624"
     inkscape:document-units="mm"
     inkscape:current-layer="layer1"
     showgrid="true"
     inkscape:pagecheckerboard="true"
     showguides="false"
     inkscape:window-width="1920"
     inkscape:window-height="1004"
     inkscape:window-x="0"
     inkscape:window-y="24"
     inkscape:window-maximized="1"
     inkscape:measure-start="-190,240"
     inkscape:measure-end="240,0"
     width="140mm">
    <inkscape:grid
       type="xygrid"
       id="grid5095" />
  </sodipodi:namedview>
  <metadata
     id="metadata4488">
    <rdf:RDF>
      <cc:Work
         rdf:about="">
        <dc:format>image/svg+xml</dc:format>
        <dc:type
           rdf:resource="http://purl.org/dc/dcmitype/StillImage" />
        <dc:title></dc:title>
      </cc:Work>
    </rdf:RDF>
  </metadata>
  <g
     inkscape:label="Layer 1"
     inkscape:groupmode="layer"
     id="layer1"
     transform="translate(0,-209)">
    <g
       id="g4135"
       transform="translate(0.67510533,-0.07463288)">
      <path
         inkscape:connector-curvature="0"
         id="path5119"
         transform="scale(0.26458333,0.26458333)"
         d="m 246.15234,792.37305 -13.42968,30.37304 -30.46289,5.10547 22.23046,23.3711 -4.97851,33.30273 27.16797,-15.92969 27.38672,15.47461 -5.43946,-33.21484 21.9043,-23.73633 L 260,822.51953 246.15234,792.37305 Z m 173.80274,49.63086 -16.29492,11.96679 -19.09375,-6.63672 6.3457,19.19336 -12.21289,16.10938 20.21484,-0.10547 11.54883,16.59375 6.14649,-19.25781 19.3496,-5.85352 -16.41601,-11.79883 0.41211,-20.21093 z m -347.474611,1.95703 0.425781,20.86328 -16.947266,12.17969 19.97461,6.04297 6.345703,19.8789 11.919922,-17.1289 20.867191,0.10937 -12.60743,-16.63086 6.55079,-19.8125 -19.710942,6.85156 -16.818359,-12.35351 z m 135.916011,87.58008 c -5.54,0 -10,4.46 -10,10 l 0,169.99998 c 0,5.54 4.46,10 10,10 l 80,0 c 5.54,0 10,-4.46 10,-10 l 0,-169.99998 c 0,-5.54 -4.46,-10 -10,-10 l -80,0 z m -167.720699,2.99023 c -22.159998,0 -39.99999975,15.32367 -39.99999975,34.35937 l 0,144.28708 15.32031275,0 c 0.384245,5.184 4.677463,9.2461 9.96289,9.2461 l 40,0 c 5.285428,0 9.578646,-4.0621 9.962891,-9.2461 l 40.074215,0 c 0.38425,5.184 4.67747,9.2461 9.96289,9.2461 l 40,0 c 5.28543,0 9.57865,-4.0621 9.9629,-9.2461 l 6.64257,0 8.11328,0 0,-144.28708 c 0,-19.0357 -17.83998,-34.35937 -40,-34.35937 l -110.001949,0 z m 310.001949,0 c -22.15999,0 -40,15.32367 -40,34.35937 l 0,144.28708 15.31836,0 c 0.38425,5.184 4.67747,9.2461 9.96289,9.2461 l 40,0 c 5.28543,0 9.57865,-4.0621 9.9629,-9.2461 l 40.07421,0 c 0.38425,5.184 4.67747,9.2461 9.96289,9.2461 l 40,0 c 5.28543,0 9.57865,-4.0621 9.9629,-9.2461 l 6.64257,0 8.11328,0 0,-144.28708 c 0,-19.0357 -17.83998,-34.35937 -40,-34.35937 l -110,0 z m -129.28125,12.00977 55,0 c 5.54,0 10,4.46 10,10 l 0,144.99998 c 0,5.54 -4.46,10 -10,10 l -55,0 c -5.54,0 -10,-4.46 -10,-10 l 0,-144.99998 c 0,-5.54 4.46,-10 10,-10 z M 59.25,953.81641 l 72.14258,0 c 22.15997,0 40,15.32562 40,34.36132 l 0,109.34177 -152.14258,0 0,-109.34177 c 0,-19.0357 17.840002,-34.36132 40,-34.36132 z m 310,0 72.14258,0 c 22.15997,0 40,15.32562 40,34.36132 l 0,109.34177 -152.14258,0 0,-109.34177 c 0,-19.0357 17.84,-34.36132 40,-34.36132 z M 95.958984,972.42383 a 48.214288,48.928562 0 0 0 -48.214843,48.92777 48.214288,48.928562 0 0 0 48.214843,48.9296 48.214288,48.928562 0 0 0 48.214846,-48.9296 48.214288,48.928562 0 0 0 -48.214846,-48.92777 z m 309.999996,0 a 48.214288,48.928562 0 0 0 -48.21484,48.92777 48.214288,48.928562 0 0 0 48.21484,48.9296 48.214288,48.928562 0 0 0 48.21485,-48.9296 48.214288,48.928562 0 0 0 -48.21485,-48.92777 z M 95,1003.1387 a 18.684367,18.928573 0 0 1 18.68555,18.9277 A 18.684367,18.928573 0 0 1 95,1040.9961 18.684367,18.928573 0 0 1 76.316406,1022.0664 18.684367,18.928573 0 0 1 95,1003.1387 Z m 310,0 a 18.684367,18.928573 0 0 1 18.68555,18.9277 A 18.684367,18.928573 0 0 1 405,1040.9961 18.684367,18.928573 0 0 1 386.31641,1022.0664 18.684367,18.928573 0 0 1 405,1003.1387 Z"
         style="opacity:1;fill:#800000;fill-opacity:0.92941176;fill-rule:evenodd;stroke:#ffffff;stroke-width:0.75599998;stroke-linecap:butt;stroke-linejoin:miter;stroke-miterlimit:4;stroke-dasharray:0, 8.31599985;stroke-dashoffset:7.55999994;stroke-opacity:1" />
    </g>
  </g>
</svg>
